<?xml version="1.0" encoding="iso-8859-1"?>
<!-- Generator: Adobe Illustrator 19.0.0, SVG Export Plug-In . SVG Version: 6.00 Build 0)  -->
<svg version="1.1" id="Layer_1" xmlns="http://www.w3.org/2000/svg" xmlns:xlink="http://www.w3.org/1999/xlink" x="0px" y="0px"
	 viewBox="0 0 512 512" style="enable-background:new 0 0 512 512;" xml:space="preserve">
<circle style="fill:#2D4452;" cx="256" cy="256" r="256"/>
<circle style="fill:#FEFFF0;" cx="288" cy="208" r="180"/>
<path style="fill:#F1F2DF;" d="M288,28c-3.116,0-6.228,0.08-9.304,0.24C364.116,32.752,432,103.444,432,190
	c0,89.468-72.532,162-162,162c-86.548,0-157.244-67.884-161.756-153.308c-0.16,3.08-0.244,6.188-0.244,9.308
	c0,99.416,80.592,180,180,180c99.416,0,180-80.584,180-180C468,108.588,387.416,28,288,28z"/>
<ellipse style="fill:#EEEFE1;" cx="276" cy="102" rx="44" ry="42"/>
<path style="fill:#E5E6D3;" d="M240,102c0-21.908,17.58-39.876,40-41.804C278.68,60.08,277.352,60,276,60c-24.296,0-44,18.804-44,42
	s19.704,42,44,42c1.352,0,2.68-0.08,4-0.192C257.58,141.876,240,123.908,240,102z"/>
<ellipse style="fill:#EEEFE1;" cx="328" cy="296" rx="68" ry="56"/>
<path style="fill:#E5E6D3;" d="M276,296c0-28.692,26.228-52.312,60-55.58c-2.624-0.252-5.288-0.42-8-0.42c-37.556,0-68,25.08-68,56
	s30.444,56,68,56c2.712,0,5.376-0.168,8-0.42C302.228,348.312,276,324.692,276,296z"/>
<circle style="fill:#EEEFE1;" cx="156" cy="196" r="36"/>
<path style="fill:#E5E6D3;" d="M132,196c0-17.836,12.984-32.596,30-35.46c-1.952-0.328-3.952-0.54-6-0.54c-19.884,0-36,16.116-36,36
	s16.116,36,36,36c2.048,0,4.048-0.212,6-0.54C144.984,228.596,132,213.836,132,196z"/>
<circle style="fill:#EEEFE1;" cx="332" cy="180" r="12"/>
<path style="fill:#E5E6D3;" d="M324,180c0-5.944,4.328-10.844,10-11.796c-0.648-0.116-1.312-0.204-2-0.204c-6.624,0-12,5.372-12,12
	s5.376,12,12,12c0.688,0,1.352-0.088,2-0.204C328.328,190.844,324,185.944,324,180z"/>
<circle style="fill:#EEEFE1;" cx="224" cy="324" r="12"/>
<path style="fill:#E5E6D3;" d="M216,324c0-5.944,4.328-10.844,10-11.796c-0.648-0.12-1.312-0.204-2-0.204c-6.624,0-12,5.372-12,12
	s5.376,12,12,12c0.688,0,1.352-0.084,2-0.204C220.328,334.844,216,329.944,216,324z"/>
<circle style="fill:#EEEFE1;" cx="160" cy="276" r="12"/>
<path style="fill:#E5E6D3;" d="M152,276c0-5.944,4.328-10.844,10-11.796c-0.648-0.12-1.312-0.204-2-0.204c-6.624,0-12,5.372-12,12
	s5.376,12,12,12c0.688,0,1.352-0.084,2-0.204C156.328,286.844,152,281.944,152,276z"/>
<circle style="fill:#EEEFE1;" cx="212" cy="76" r="12"/>
<path style="fill:#E5E6D3;" d="M204,76c0-5.944,4.328-10.844,10-11.796c-0.648-0.116-1.312-0.204-2-0.204c-6.624,0-12,5.372-12,12
	s5.376,12,12,12c0.688,0,1.352-0.088,2-0.204C208.328,86.844,204,81.944,204,76z"/>
<circle style="fill:#EEEFE1;" cx="224" cy="204" r="16"/>
<path style="fill:#E5E6D3;" d="M213.336,204c0-7.924,5.772-14.456,13.336-15.732C225.796,188.12,224.916,188,224,188
	c-8.836,0-16,7.16-16,16s7.164,16,16,16c0.916,0,1.796-0.12,2.672-0.268C219.108,218.456,213.336,211.924,213.336,204z"/>
<path style="fill:#FFFFFF;" d="M208.86,375.256c0.344-3.896,0.556-7.828,0.556-11.812C209.416,290.852,151.164,232,79.312,232
	c-29.824,0-57.288,10.16-79.236,27.212C1.492,373.66,77.972,469.988,182.584,501.26c33.788-4.224,59.932-32.752,59.932-67.492
	C242.524,408.808,228.992,387.144,208.86,375.256z"/>
<path style="fill:#F5F5F5;" d="M208.86,375.256c0.344-3.896,0.556-7.828,0.556-11.812C209.416,290.852,151.164,232,79.312,232
	c-3.084,0-6.116,0.192-9.148,0.408c67.28,5.06,120.32,61.776,120.32,131.044c0,3.984-0.204,7.916-0.548,11.812
	c20.132,11.88,33.664,33.544,33.664,58.508c0,30.704-20.416,56.584-48.492,65.104c2.476,0.828,4.96,1.632,7.476,2.388
	c33.788-4.228,59.932-32.752,59.932-67.492C242.524,408.808,228.992,387.144,208.86,375.256z"/>
<path style="fill:#FFFFFF;" d="M512,256c0-20.588-2.496-40.584-7.084-59.768c-36.896,12.624-65.132,44.216-73.188,83.336
	c-0.328-0.008-0.656-0.048-0.984-0.048C391.672,279.524,360,311.1,360,350.172s31.672,70.648,70.744,70.648h21.084
	C489.352,376.28,512,318.796,512,256z"/>
<path style="fill:#F5F5F5;" d="M434.892,267.72c-1.4,4.632-2.672,9.664-3.148,11.808c-0.336-0.004-0.672-0.004-1-0.004
	c-12.688,0-24.572,3.384-34.86,9.228c8.892-3.32,18.6-5.188,28.796-5.188c21.928,0,41.688,8.472,55.664,22.06
	C472.344,287.828,451.664,269.62,434.892,267.72z"/>
<g>
</g>
<g>
</g>
<g>
</g>
<g>
</g>
<g>
</g>
<g>
</g>
<g>
</g>
<g>
</g>
<g>
</g>
<g>
</g>
<g>
</g>
<g>
</g>
<g>
</g>
<g>
</g>
<g>
</g>
</svg>
