<?xml version="1.0" encoding="iso-8859-1"?>
<!-- Generator: Adobe Illustrator 19.0.0, SVG Export Plug-In . SVG Version: 6.00 Build 0)  -->
<svg version="1.1" id="Layer_1" xmlns="http://www.w3.org/2000/svg" xmlns:xlink="http://www.w3.org/1999/xlink" x="0px" y="0px"
	 viewBox="0 0 511.988 511.988" style="enable-background:new 0 0 511.988 511.988;" xml:space="preserve">
<g>
	<path style="fill:#4A89DC;" d="M170.668,405.336L170.668,405.336c-5.906,0-10.671-4.781-10.671-10.688v-54.077
		c0-5.891,4.78-10.672,10.671-10.672l0,0c5.891,0,10.656,4.781,10.656,10.672v54.093
		C181.324,400.555,176.558,405.336,170.668,405.336z"/>
	<path style="fill:#4A89DC;" d="M170.668,351.242h-53.342c-5.891,0-10.656-4.781-10.656-10.672s4.766-10.672,10.656-10.672h53.342
		c5.891,0,10.656,4.781,10.656,10.672S176.558,351.242,170.668,351.242z"/>
	<path style="fill:#4A89DC;" d="M395.414,351.992L395.414,351.992H341.32c-5.891,0-10.655-4.781-10.655-10.656
		c0-5.906,4.765-10.688,10.655-10.688l0,0h54.094c5.89,0,10.671,4.781,10.671,10.688
		C406.085,347.212,401.304,351.992,395.414,351.992z"/>
	<path style="fill:#4A89DC;" d="M341.32,405.336c-5.891,0-10.655-4.781-10.655-10.688v-53.312c0-5.906,4.765-10.688,10.655-10.688
		s10.672,4.781,10.672,10.688v53.312C351.992,400.555,347.211,405.336,341.32,405.336z"/>
	<path style="fill:#4A89DC;" d="M330.665,191.996L330.665,191.996c-5.891,0-10.672-4.773-10.672-10.664v-54.093
		c0-5.891,4.781-10.664,10.672-10.664l0,0c5.89,0,10.655,4.773,10.655,10.664v54.093
		C341.32,187.223,336.555,191.996,330.665,191.996z"/>
	<path style="fill:#4A89DC;" d="M383.992,191.996h-53.327c-5.891,0-10.672-4.773-10.672-10.664s4.781-10.672,10.672-10.672h53.327
		c5.891,0,10.672,4.781,10.672,10.672C394.664,187.223,389.883,191.996,383.992,191.996z"/>
	<path style="fill:#4A89DC;" d="M182.09,191.996h-54.093c-5.891,0-10.671-4.773-10.671-10.664s4.78-10.672,10.671-10.672h54.093
		c5.891,0,10.672,4.781,10.672,10.672C192.762,187.223,187.98,191.996,182.09,191.996z"/>
	<path style="fill:#4A89DC;" d="M182.09,191.996c-5.891,0-10.672-4.773-10.672-10.664v-53.335c0-5.891,4.781-10.664,10.672-10.664
		s10.672,4.773,10.672,10.664v53.335C192.762,187.223,187.98,191.996,182.09,191.996z"/>
	<path style="fill:#4A89DC;" d="M127.997,394.648c-2.734,0-5.453-1.031-7.547-3.125c-4.155-4.156-4.155-10.906,0-15.062
		l255.995-256.002c4.172-4.172,10.922-4.172,15.094,0c4.156,4.164,4.156,10.914,0,15.086L135.544,391.523
		C133.45,393.617,130.731,394.648,127.997,394.648z"/>
	<path style="fill:#4A89DC;" d="M383.992,394.648c-2.734,0-5.453-1.031-7.547-3.125L120.45,135.545
		c-4.155-4.172-4.155-10.922,0-15.086c4.172-4.172,10.922-4.172,15.094,0l255.995,256.002c4.156,4.156,4.156,10.906,0,15.062
		C389.445,393.617,386.726,394.648,383.992,394.648z"/>
</g>
<g>
	<path style="fill:#5D9CEC;" d="M266.666,400.898V111.083l50.202-50.209c4.172-4.164,4.172-10.914,0-15.085
		c-4.172-4.164-10.921-4.164-15.077,0l-35.125,35.124V10.665c0-5.891-4.781-10.664-10.672-10.664
		c-5.891,0-10.671,4.773-10.671,10.664v70.248l-35.125-35.124c-4.156-4.164-10.905-4.164-15.077,0
		c-4.172,4.172-4.172,10.921,0,15.085l50.202,50.209v289.814l-50.202,50.217c-4.172,4.156-4.172,10.922,0,15.094
		c2.078,2.062,4.812,3.125,7.547,3.125c2.718,0,5.452-1.062,7.53-3.125l35.125-35.124v70.248c0,5.875,4.78,10.656,10.671,10.656
		c5.891,0,10.672-4.781,10.672-10.656v-70.247l35.125,35.124c2.078,2.062,4.812,3.125,7.531,3.125c2.734,0,5.468-1.062,7.546-3.125
		c4.172-4.172,4.172-10.938,0-15.094L266.666,400.898z"/>
	<path style="fill:#5D9CEC;" d="M501.317,245.331h-70.249l35.125-35.124c4.172-4.164,4.172-10.922,0-15.085
		c-4.156-4.164-10.906-4.164-15.078,0l-50.202,50.209H111.076l-50.202-50.21c-4.172-4.164-10.922-4.164-15.078,0
		c-4.172,4.164-4.172,10.921,0,15.085L80.92,245.33H10.672C4.781,245.33,0,250.103,0,255.994c0,5.891,4.781,10.664,10.672,10.664
		H80.92l-35.124,35.117c-4.172,4.188-4.172,10.938,0,15.093c2.078,2.094,4.812,3.125,7.531,3.125c2.734,0,5.469-1.031,7.547-3.125
		l50.202-50.209h289.837l50.202,50.209c2.078,2.094,4.812,3.125,7.547,3.125c2.719,0,5.453-1.031,7.531-3.125
		c4.172-4.155,4.172-10.905,0-15.093l-35.125-35.116h70.249c5.89,0,10.671-4.773,10.671-10.664S507.207,245.331,501.317,245.331z"/>
</g>
<g>
</g>
<g>
</g>
<g>
</g>
<g>
</g>
<g>
</g>
<g>
</g>
<g>
</g>
<g>
</g>
<g>
</g>
<g>
</g>
<g>
</g>
<g>
</g>
<g>
</g>
<g>
</g>
<g>
</g>
</svg>
